<?xml version="1.0" standalone="no"?>
<!DOCTYPE svg PUBLIC "-//W3C//DTD SVG 20010904//EN"
 "http://www.w3.org/TR/2001/REC-SVG-20010904/DTD/svg10.dtd">
<svg version="1.0" xmlns="http://www.w3.org/2000/svg"
 width="842.000000pt" height="842.000000pt" viewBox="0 0 842.000000 842.000000"
 preserveAspectRatio="xMidYMid meet">
<metadata>
Created by potrace 1.11, written by Peter Selinger 2001-2013
</metadata>
<g transform="translate(0.000000,842.000000) scale(0.100000,-0.100000)"
fill="#000000" stroke="none">
<path d="M4148 7023 c-29 -18 -52 -62 -54 -103 -3 -38 -3 -40 -13 -40 -5 0
-65 -27 -134 -60 -68 -33 -129 -60 -135 -60 -7 0 -12 -4 -12 -10 0 -5 -5 -10
-10 -10 -6 0 -74 -31 -153 -69 -78 -38 -200 -96 -272 -131 -71 -34 -161 -77
-198 -96 -58 -30 -76 -34 -122 -30 -30 2 -55 1 -55 -3 0 -11 -59 -43 -69 -36
-6 3 -9 -4 -8 -15 1 -11 5 -20 9 -20 4 0 4 -10 -1 -22 -4 -13 -4 -37 1 -54 7
-26 0 -57 -35 -166 -24 -73 -50 -153 -57 -178 -8 -25 -18 -51 -23 -57 -5 -7
-7 -13 -4 -13 4 0 -9 -44 -27 -97 -28 -81 -107 -324 -111 -343 -1 -3 -10 -32
-20 -65 -11 -33 -19 -63 -19 -67 -1 -3 -4 -10 -8 -14 -5 -4 -8 -16 -8 -26 0
-17 -10 -22 -37 -19 -25 3 -81 -28 -100 -55 -23 -34 -22 -90 2 -127 20 -32 68
-55 103 -51 27 3 28 0 91 -182 l63 -186 -31 -30 c-33 -32 -54 -87 -40 -102 5
-6 9 -18 9 -27 0 -10 15 -29 33 -43 36 -27 92 -34 127 -16 19 10 29 0 147
-146 18 -22 46 -56 62 -75 189 -224 201 -240 186 -263 -8 -12 -16 -38 -19 -57
-9 -90 79 -150 167 -114 20 8 23 5 97 -85 25 -30 53 -64 62 -75 9 -11 67 -81
128 -155 61 -74 126 -153 145 -175 62 -74 75 -90 82 -100 21 -28 108 -131 117
-140 39 -35 96 -120 91 -135 -6 -20 9 -65 28 -84 7 -8 28 -21 46 -30 21 -11
31 -23 27 -32 -3 -8 -1 -14 4 -14 6 0 13 0 18 -1 4 0 9 10 12 23 3 13 11 23
17 23 6 0 25 10 42 23 24 18 32 32 37 73 4 30 16 61 28 74 12 13 32 39 46 57
14 18 32 39 40 48 8 8 33 38 55 65 22 28 45 55 50 61 6 6 24 28 40 49 17 21
35 43 40 49 6 6 30 36 55 66 24 30 51 62 60 71 8 9 26 31 40 49 14 17 33 41
43 53 11 12 33 39 50 60 85 103 89 107 103 96 17 -14 86 -14 113 0 29 16 61
69 61 101 0 14 -8 41 -18 60 -14 25 -16 38 -8 47 6 8 25 29 41 48 34 39 35 40
90 110 22 28 42 52 45 55 3 3 27 32 55 65 27 33 53 62 57 63 5 2 8 10 8 17 0
7 4 15 9 17 4 2 32 32 62 68 29 36 60 73 68 82 11 12 20 14 38 7 79 -30 163
21 168 101 1 25 -25 74 -51 96 l-25 20 44 130 c91 264 78 238 122 242 131 10
155 175 33 221 -15 5 -36 8 -47 6 -21 -4 -24 0 -64 130 -14 44 -61 193 -105
330 -44 138 -93 288 -107 335 -15 47 -29 92 -32 100 -4 8 -7 18 -8 23 -2 4 -4
9 -5 12 -1 3 -3 8 -4 13 -1 4 -4 12 -8 18 -4 6 3 21 17 34 70 65 52 165 -36
199 -29 11 -87 5 -106 -11 -9 -7 -47 7 -130 48 -65 31 -167 81 -228 109 -60
29 -200 96 -310 149 -110 53 -243 117 -295 143 l-95 45 1 38 c4 84 -103 139
-178 93z"/>
<path d="M4535 2774 c-27 -8 -59 -19 -70 -24 -11 -5 -65 -26 -120 -45 -130
-47 -275 -101 -350 -130 -33 -12 -96 -35 -140 -50 -100 -34 -141 -64 -156
-114 -25 -85 23 -164 108 -177 37 -5 68 3 225 61 101 37 189 68 196 68 6 0 12
4 12 9 0 4 6 8 13 8 16 0 308 106 376 137 29 13 59 29 66 36 38 38 46 104 19
160 -30 62 -96 85 -179 61z"/>
<path d="M4455 2304 c-22 -8 -47 -17 -55 -21 -8 -3 -17 -7 -20 -8 -3 -1 -14
-5 -25 -9 -11 -4 -51 -19 -90 -33 -38 -13 -79 -28 -90 -33 -11 -5 -85 -32
-165 -61 -198 -71 -206 -75 -235 -117 -81 -119 50 -258 187 -198 18 8 76 30
128 50 210 77 477 176 506 187 69 27 99 136 54 199 -42 58 -111 74 -195 44z"/>
<path d="M4295 1769 c-60 -23 -123 -47 -140 -54 -16 -7 -48 -18 -70 -25 -22
-6 -49 -15 -60 -20 -11 -5 -44 -19 -74 -30 -80 -31 -129 -97 -110 -147 5 -13
6 -23 3 -23 -12 0 29 -61 53 -78 48 -33 81 -33 178 0 50 17 101 36 115 41 14
6 28 11 33 12 4 2 9 4 12 5 3 1 8 3 13 5 4 1 14 5 22 8 8 4 58 22 110 41 146
52 146 52 175 90 69 90 4 217 -110 216 -22 -1 -89 -19 -150 -41z"/>
</g>
</svg>
